<mxfile host="app.diagrams.net" agent="Mozilla/5.0 (Macintosh; Intel Mac OS X 10_15_7) AppleWebKit/605.1.15 (KHTML, like Gecko) Version/17.2.1 Safari/605.1.15" version="26.0.4">
  <diagram name="Page-1" id="oQB_BBk6WWccpylos_tz">
    <mxGraphModel dx="954" dy="544" grid="1" gridSize="10" guides="1" tooltips="1" connect="1" arrows="1" fold="1" page="1" pageScale="1" pageWidth="827" pageHeight="1169" math="0" shadow="0">
      <root>
        <mxCell id="0" />
        <mxCell id="1" parent="0" />
        <mxCell id="OEzI5QVFCQrL6Sn4ckHb-1" value="" style="shape=umlActor;verticalLabelPosition=bottom;verticalAlign=top;html=1;outlineConnect=0;" parent="1" vertex="1">
          <mxGeometry x="20" y="35" width="80" height="160" as="geometry" />
        </mxCell>
        <mxCell id="OEzI5QVFCQrL6Sn4ckHb-5" value="" style="rounded=1;whiteSpace=wrap;html=1;direction=south;" parent="1" vertex="1">
          <mxGeometry x="240" y="80" width="20" height="120" as="geometry" />
        </mxCell>
        <mxCell id="OEzI5QVFCQrL6Sn4ckHb-6" value="" style="rounded=1;whiteSpace=wrap;html=1;direction=south;" parent="1" vertex="1">
          <mxGeometry x="460" y="106" width="20" height="124" as="geometry" />
        </mxCell>
        <mxCell id="OEzI5QVFCQrL6Sn4ckHb-7" value="" style="rounded=1;whiteSpace=wrap;html=1;direction=south;" parent="1" vertex="1">
          <mxGeometry x="690" y="141" width="20" height="139" as="geometry" />
        </mxCell>
        <mxCell id="OEzI5QVFCQrL6Sn4ckHb-8" value="" style="rounded=1;whiteSpace=wrap;html=1;direction=south;" parent="1" vertex="1">
          <mxGeometry x="860" y="194" width="20" height="199" as="geometry" />
        </mxCell>
        <mxCell id="OEzI5QVFCQrL6Sn4ckHb-10" value="&amp;lt;&amp;lt;view&amp;gt;&amp;gt;&lt;div&gt;prefrences tab&lt;/div&gt;" style="text;html=1;align=center;verticalAlign=middle;whiteSpace=wrap;rounded=0;" parent="1" vertex="1">
          <mxGeometry x="170" y="40" width="150" height="30" as="geometry" />
        </mxCell>
        <mxCell id="OEzI5QVFCQrL6Sn4ckHb-11" value="&amp;lt;&amp;lt;controller&amp;gt;&amp;gt;&lt;div&gt;selectprefrencestab&lt;/div&gt;" style="text;html=1;align=center;verticalAlign=middle;whiteSpace=wrap;rounded=0;" parent="1" vertex="1">
          <mxGeometry x="440" y="60" width="60" height="30" as="geometry" />
        </mxCell>
        <mxCell id="OEzI5QVFCQrL6Sn4ckHb-12" value="order" style="text;html=1;align=center;verticalAlign=middle;whiteSpace=wrap;rounded=0;" parent="1" vertex="1">
          <mxGeometry x="670" y="106" width="60" height="30" as="geometry" />
        </mxCell>
        <mxCell id="OEzI5QVFCQrL6Sn4ckHb-13" value="car_comp/airline/hotel" style="text;html=1;align=center;verticalAlign=middle;whiteSpace=wrap;rounded=0;" parent="1" vertex="1">
          <mxGeometry x="840" y="150" width="60" height="30" as="geometry" />
        </mxCell>
        <mxCell id="OEzI5QVFCQrL6Sn4ckHb-16" value="" style="endArrow=none;dashed=1;html=1;rounded=0;entryX=0.5;entryY=0.5;entryDx=0;entryDy=0;entryPerimeter=0;" parent="1" target="OEzI5QVFCQrL6Sn4ckHb-1" edge="1">
          <mxGeometry width="50" height="50" relative="1" as="geometry">
            <mxPoint x="70" y="1080" as="sourcePoint" />
            <mxPoint x="470" y="210" as="targetPoint" />
            <Array as="points">
              <mxPoint x="70" y="1070" />
            </Array>
          </mxGeometry>
        </mxCell>
        <mxCell id="OEzI5QVFCQrL6Sn4ckHb-17" value="" style="endArrow=none;dashed=1;html=1;rounded=0;entryX=1;entryY=0.5;entryDx=0;entryDy=0;" parent="1" target="OEzI5QVFCQrL6Sn4ckHb-5" edge="1">
          <mxGeometry width="50" height="50" relative="1" as="geometry">
            <mxPoint x="250" y="1160" as="sourcePoint" />
            <mxPoint x="249.5" y="190" as="targetPoint" />
          </mxGeometry>
        </mxCell>
        <mxCell id="OEzI5QVFCQrL6Sn4ckHb-18" value="" style="endArrow=none;dashed=1;html=1;rounded=0;entryX=1;entryY=0.5;entryDx=0;entryDy=0;" parent="1" target="OEzI5QVFCQrL6Sn4ckHb-6" edge="1">
          <mxGeometry width="50" height="50" relative="1" as="geometry">
            <mxPoint x="470" y="1160" as="sourcePoint" />
            <mxPoint x="470" y="219" as="targetPoint" />
          </mxGeometry>
        </mxCell>
        <mxCell id="OEzI5QVFCQrL6Sn4ckHb-19" value="" style="endArrow=none;dashed=1;html=1;rounded=0;entryX=1;entryY=0.5;entryDx=0;entryDy=0;" parent="1" target="OEzI5QVFCQrL6Sn4ckHb-7" edge="1">
          <mxGeometry width="50" height="50" relative="1" as="geometry">
            <mxPoint x="700" y="1170" as="sourcePoint" />
            <mxPoint x="700" y="281" as="targetPoint" />
          </mxGeometry>
        </mxCell>
        <mxCell id="OEzI5QVFCQrL6Sn4ckHb-20" value="" style="endArrow=none;dashed=1;html=1;rounded=0;entryX=1;entryY=0.5;entryDx=0;entryDy=0;" parent="1" target="OEzI5QVFCQrL6Sn4ckHb-8" edge="1">
          <mxGeometry width="50" height="50" relative="1" as="geometry">
            <mxPoint x="870" y="1180" as="sourcePoint" />
            <mxPoint x="870" y="355" as="targetPoint" />
          </mxGeometry>
        </mxCell>
        <mxCell id="OEzI5QVFCQrL6Sn4ckHb-22" value="" style="endArrow=classic;html=1;rounded=0;exitX=0.5;exitY=0.5;exitDx=0;exitDy=0;exitPerimeter=0;entryX=0.25;entryY=1;entryDx=0;entryDy=0;" parent="1" target="OEzI5QVFCQrL6Sn4ckHb-5" edge="1">
          <mxGeometry width="50" height="50" relative="1" as="geometry">
            <mxPoint x="60" y="111" as="sourcePoint" />
            <mxPoint x="240" y="138" as="targetPoint" />
          </mxGeometry>
        </mxCell>
        <mxCell id="OEzI5QVFCQrL6Sn4ckHb-23" value="selectPref(custID,OrdID,type,Pref)" style="text;html=1;align=center;verticalAlign=middle;whiteSpace=wrap;rounded=0;" parent="1" vertex="1">
          <mxGeometry x="125" y="80" width="60" height="30" as="geometry" />
        </mxCell>
        <mxCell id="OEzI5QVFCQrL6Sn4ckHb-24" value="" style="endArrow=classic;html=1;rounded=0;exitX=0.75;exitY=0;exitDx=0;exitDy=0;entryX=0.5;entryY=1;entryDx=0;entryDy=0;" parent="1" source="OEzI5QVFCQrL6Sn4ckHb-5" target="OEzI5QVFCQrL6Sn4ckHb-6" edge="1">
          <mxGeometry width="50" height="50" relative="1" as="geometry">
            <mxPoint x="310" y="440" as="sourcePoint" />
            <mxPoint x="380" y="155" as="targetPoint" />
          </mxGeometry>
        </mxCell>
        <mxCell id="OEzI5QVFCQrL6Sn4ckHb-25" value="selectPref(custID,OrdID,type,Pref)" style="text;html=1;align=center;verticalAlign=middle;whiteSpace=wrap;rounded=0;" parent="1" vertex="1">
          <mxGeometry x="330" y="128" width="60" height="30" as="geometry" />
        </mxCell>
        <mxCell id="OEzI5QVFCQrL6Sn4ckHb-28" value="" style="endArrow=classic;html=1;rounded=0;exitX=0.75;exitY=0;exitDx=0;exitDy=0;entryX=0.406;entryY=1.079;entryDx=0;entryDy=0;entryPerimeter=0;" parent="1" source="OEzI5QVFCQrL6Sn4ckHb-6" target="OEzI5QVFCQrL6Sn4ckHb-7" edge="1">
          <mxGeometry width="50" height="50" relative="1" as="geometry">
            <mxPoint x="500" y="450" as="sourcePoint" />
            <mxPoint x="550" y="400" as="targetPoint" />
          </mxGeometry>
        </mxCell>
        <mxCell id="OEzI5QVFCQrL6Sn4ckHb-30" value="updatePrefOrd(custID,OrdID,type,Pref)" style="text;html=1;align=center;verticalAlign=middle;whiteSpace=wrap;rounded=0;" parent="1" vertex="1">
          <mxGeometry x="550" y="150" width="60" height="30" as="geometry" />
        </mxCell>
        <mxCell id="OEzI5QVFCQrL6Sn4ckHb-31" value="" style="endArrow=classic;html=1;rounded=0;exitX=0.75;exitY=0;exitDx=0;exitDy=0;entryX=0.25;entryY=1;entryDx=0;entryDy=0;" parent="1" source="OEzI5QVFCQrL6Sn4ckHb-7" target="OEzI5QVFCQrL6Sn4ckHb-8" edge="1">
          <mxGeometry width="50" height="50" relative="1" as="geometry">
            <mxPoint x="340" y="450" as="sourcePoint" />
            <mxPoint x="390" y="400" as="targetPoint" />
          </mxGeometry>
        </mxCell>
        <mxCell id="OEzI5QVFCQrL6Sn4ckHb-32" value="requestPrefvalidation()" style="text;html=1;align=center;verticalAlign=middle;whiteSpace=wrap;rounded=0;" parent="1" vertex="1">
          <mxGeometry x="740" y="194" width="60" height="30" as="geometry" />
        </mxCell>
        <mxCell id="OEzI5QVFCQrL6Sn4ckHb-34" value="" style="html=1;labelBackgroundColor=#ffffff;startArrow=none;startFill=0;startSize=6;endArrow=classic;endFill=1;endSize=6;jettySize=auto;orthogonalLoop=1;strokeWidth=1;dashed=1;fontSize=14;rounded=0;exitX=0.39;exitY=1.079;exitDx=0;exitDy=0;exitPerimeter=0;entryX=0.939;entryY=0.007;entryDx=0;entryDy=0;entryPerimeter=0;" parent="1" source="OEzI5QVFCQrL6Sn4ckHb-8" target="OEzI5QVFCQrL6Sn4ckHb-7" edge="1">
          <mxGeometry width="60" height="60" relative="1" as="geometry">
            <mxPoint x="480" y="440" as="sourcePoint" />
            <mxPoint x="540" y="380" as="targetPoint" />
          </mxGeometry>
        </mxCell>
        <mxCell id="OEzI5QVFCQrL6Sn4ckHb-35" value="returnvalidation(bool)" style="text;html=1;align=center;verticalAlign=middle;whiteSpace=wrap;rounded=0;" parent="1" vertex="1">
          <mxGeometry x="750" y="240" width="60" height="30" as="geometry" />
        </mxCell>
        <mxCell id="OEzI5QVFCQrL6Sn4ckHb-36" value="" style="shape=card;whiteSpace=wrap;html=1;" parent="1" vertex="1">
          <mxGeometry x="180" y="430" width="1310" height="380" as="geometry" />
        </mxCell>
        <mxCell id="OEzI5QVFCQrL6Sn4ckHb-37" value="" style="rounded=1;whiteSpace=wrap;html=1;direction=south;" parent="1" vertex="1">
          <mxGeometry x="240" y="493" width="20" height="217" as="geometry" />
        </mxCell>
        <mxCell id="OEzI5QVFCQrL6Sn4ckHb-38" value="" style="endArrow=classic;html=1;rounded=0;exitX=0.415;exitY=0.221;exitDx=0;exitDy=0;entryX=0.5;entryY=1;entryDx=0;entryDy=0;exitPerimeter=0;" parent="1" source="OEzI5QVFCQrL6Sn4ckHb-37" target="OEzI5QVFCQrL6Sn4ckHb-41" edge="1">
          <mxGeometry width="50" height="50" relative="1" as="geometry">
            <mxPoint x="310" y="853" as="sourcePoint" />
            <mxPoint x="380" y="568" as="targetPoint" />
          </mxGeometry>
        </mxCell>
        <mxCell id="OEzI5QVFCQrL6Sn4ckHb-39" value="&amp;lt;&amp;lt;view&amp;gt;&amp;gt;&lt;div&gt;prefrences tab&lt;/div&gt;" style="text;html=1;align=center;verticalAlign=middle;whiteSpace=wrap;rounded=0;" parent="1" vertex="1">
          <mxGeometry x="170" y="462" width="150" height="30" as="geometry" />
        </mxCell>
        <mxCell id="OEzI5QVFCQrL6Sn4ckHb-40" value="&amp;lt;&amp;lt;controller&amp;gt;&amp;gt;&lt;div&gt;selectprefrencestab&lt;/div&gt;" style="text;html=1;align=center;verticalAlign=middle;whiteSpace=wrap;rounded=0;" parent="1" vertex="1">
          <mxGeometry x="440" y="481.5" width="60" height="30" as="geometry" />
        </mxCell>
        <mxCell id="OEzI5QVFCQrL6Sn4ckHb-41" value="" style="rounded=1;whiteSpace=wrap;html=1;direction=south;" parent="1" vertex="1">
          <mxGeometry x="460" y="519" width="20" height="124" as="geometry" />
        </mxCell>
        <mxCell id="OEzI5QVFCQrL6Sn4ckHb-42" value="" style="endArrow=classic;html=1;rounded=0;exitX=0.5;exitY=0;exitDx=0;exitDy=0;entryX=0.442;entryY=0.793;entryDx=0;entryDy=0;entryPerimeter=0;" parent="1" source="OEzI5QVFCQrL6Sn4ckHb-41" target="OEzI5QVFCQrL6Sn4ckHb-43" edge="1">
          <mxGeometry width="50" height="50" relative="1" as="geometry">
            <mxPoint x="500" y="810" as="sourcePoint" />
            <mxPoint x="688" y="520" as="targetPoint" />
          </mxGeometry>
        </mxCell>
        <mxCell id="OEzI5QVFCQrL6Sn4ckHb-43" value="" style="rounded=1;whiteSpace=wrap;html=1;direction=south;" parent="1" vertex="1">
          <mxGeometry x="690" y="516.5" width="20" height="139" as="geometry" />
        </mxCell>
        <mxCell id="OEzI5QVFCQrL6Sn4ckHb-44" value="" style="endArrow=classic;html=1;rounded=0;exitX=0.424;exitY=-0.064;exitDx=0;exitDy=0;entryX=0.25;entryY=1;entryDx=0;entryDy=0;exitPerimeter=0;" parent="1" source="OEzI5QVFCQrL6Sn4ckHb-43" target="OEzI5QVFCQrL6Sn4ckHb-45" edge="1">
          <mxGeometry width="50" height="50" relative="1" as="geometry">
            <mxPoint x="340" y="810" as="sourcePoint" />
            <mxPoint x="390" y="760" as="targetPoint" />
          </mxGeometry>
        </mxCell>
        <mxCell id="OEzI5QVFCQrL6Sn4ckHb-45" value="" style="rounded=1;whiteSpace=wrap;html=1;direction=south;" parent="1" vertex="1">
          <mxGeometry x="860" y="526" width="20" height="199" as="geometry" />
        </mxCell>
        <mxCell id="OEzI5QVFCQrL6Sn4ckHb-48" value="order" style="text;html=1;align=center;verticalAlign=middle;whiteSpace=wrap;rounded=0;" parent="1" vertex="1">
          <mxGeometry x="670" y="473" width="60" height="30" as="geometry" />
        </mxCell>
        <mxCell id="OEzI5QVFCQrL6Sn4ckHb-49" value="car_comp/airline/hotel" style="text;html=1;align=center;verticalAlign=middle;whiteSpace=wrap;rounded=0;" parent="1" vertex="1">
          <mxGeometry x="840" y="481.5" width="60" height="30" as="geometry" />
        </mxCell>
        <mxCell id="OEzI5QVFCQrL6Sn4ckHb-51" value="loop" style="text;html=1;align=center;verticalAlign=middle;whiteSpace=wrap;rounded=0;" parent="1" vertex="1">
          <mxGeometry x="200" y="432" width="60" height="30" as="geometry" />
        </mxCell>
        <mxCell id="OEzI5QVFCQrL6Sn4ckHb-52" value="" style="endArrow=classic;html=1;rounded=0;exitX=0.919;exitY=1.079;exitDx=0;exitDy=0;exitPerimeter=0;entryX=0.25;entryY=0;entryDx=0;entryDy=0;" parent="1" source="OEzI5QVFCQrL6Sn4ckHb-7" target="OEzI5QVFCQrL6Sn4ckHb-41" edge="1">
          <mxGeometry width="50" height="50" relative="1" as="geometry">
            <mxPoint x="480" y="500" as="sourcePoint" />
            <mxPoint x="530" y="390" as="targetPoint" />
            <Array as="points">
              <mxPoint x="520" y="270" />
              <mxPoint x="520" y="550" />
            </Array>
          </mxGeometry>
        </mxCell>
        <mxCell id="OEzI5QVFCQrL6Sn4ckHb-53" value="selectPref(custID,OrdID,type,Pref)" style="text;html=1;align=center;verticalAlign=middle;whiteSpace=wrap;rounded=0;" parent="1" vertex="1">
          <mxGeometry x="330" y="555" width="60" height="30" as="geometry" />
        </mxCell>
        <mxCell id="OEzI5QVFCQrL6Sn4ckHb-54" value="updatePrefOrd(custID,OrdID,type,Pref)" style="text;html=1;align=center;verticalAlign=middle;whiteSpace=wrap;rounded=0;" parent="1" vertex="1">
          <mxGeometry x="560" y="550" width="60" height="30" as="geometry" />
        </mxCell>
        <mxCell id="OEzI5QVFCQrL6Sn4ckHb-55" value="requestPrefvalidation()" style="text;html=1;align=center;verticalAlign=middle;whiteSpace=wrap;rounded=0;" parent="1" vertex="1">
          <mxGeometry x="750" y="550" width="60" height="26" as="geometry" />
        </mxCell>
        <mxCell id="OEzI5QVFCQrL6Sn4ckHb-56" value="returnvalidation(bool)" style="text;html=1;align=center;verticalAlign=middle;whiteSpace=wrap;rounded=0;" parent="1" vertex="1">
          <mxGeometry x="760" y="600" width="60" height="30" as="geometry" />
        </mxCell>
        <mxCell id="OEzI5QVFCQrL6Sn4ckHb-57" value="" style="html=1;labelBackgroundColor=#ffffff;startArrow=none;startFill=0;startSize=6;endArrow=classic;endFill=1;endSize=6;jettySize=auto;orthogonalLoop=1;strokeWidth=1;dashed=1;fontSize=14;rounded=0;exitX=0.39;exitY=1.079;exitDx=0;exitDy=0;exitPerimeter=0;entryX=0.939;entryY=0.007;entryDx=0;entryDy=0;entryPerimeter=0;" parent="1" edge="1">
          <mxGeometry width="60" height="60" relative="1" as="geometry">
            <mxPoint x="858" y="630" as="sourcePoint" />
            <mxPoint x="710" y="630" as="targetPoint" />
          </mxGeometry>
        </mxCell>
        <mxCell id="OEzI5QVFCQrL6Sn4ckHb-58" value="" style="html=1;labelBackgroundColor=#ffffff;startArrow=none;startFill=0;startSize=6;endArrow=classic;endFill=1;endSize=6;jettySize=auto;orthogonalLoop=1;strokeWidth=1;dashed=1;fontSize=14;rounded=0;exitX=0.39;exitY=1.079;exitDx=0;exitDy=0;exitPerimeter=0;entryX=0.873;entryY=0.15;entryDx=0;entryDy=0;entryPerimeter=0;" parent="1" target="OEzI5QVFCQrL6Sn4ckHb-41" edge="1">
          <mxGeometry width="60" height="60" relative="1" as="geometry">
            <mxPoint x="690" y="628.57" as="sourcePoint" />
            <mxPoint x="542" y="628.57" as="targetPoint" />
          </mxGeometry>
        </mxCell>
        <mxCell id="OEzI5QVFCQrL6Sn4ckHb-59" value="returnvalidation(bool)" style="text;html=1;align=center;verticalAlign=middle;whiteSpace=wrap;rounded=0;" parent="1" vertex="1">
          <mxGeometry x="560" y="600" width="60" height="30" as="geometry" />
        </mxCell>
        <mxCell id="OEzI5QVFCQrL6Sn4ckHb-60" value="" style="html=1;labelBackgroundColor=#ffffff;startArrow=none;startFill=0;startSize=6;endArrow=classic;endFill=1;endSize=6;jettySize=auto;orthogonalLoop=1;strokeWidth=1;dashed=1;fontSize=14;rounded=0;exitX=0.39;exitY=1.079;exitDx=0;exitDy=0;exitPerimeter=0;entryX=0.25;entryY=0;entryDx=0;entryDy=0;" parent="1" target="OEzI5QVFCQrL6Sn4ckHb-62" edge="1">
          <mxGeometry width="60" height="60" relative="1" as="geometry">
            <mxPoint x="460" y="615.7800000000001" as="sourcePoint" />
            <mxPoint x="247" y="614.21" as="targetPoint" />
            <Array as="points">
              <mxPoint x="300" y="616" />
              <mxPoint x="300" y="905" />
            </Array>
          </mxGeometry>
        </mxCell>
        <mxCell id="OEzI5QVFCQrL6Sn4ckHb-61" value="(prefrences validation)" style="text;html=1;align=center;verticalAlign=middle;whiteSpace=wrap;rounded=0;" parent="1" vertex="1">
          <mxGeometry x="310" y="586.5" width="150" height="13.5" as="geometry" />
        </mxCell>
        <mxCell id="OEzI5QVFCQrL6Sn4ckHb-62" value="" style="rounded=1;whiteSpace=wrap;html=1;direction=south;" parent="1" vertex="1">
          <mxGeometry x="241" y="851" width="20" height="217" as="geometry" />
        </mxCell>
        <mxCell id="OEzI5QVFCQrL6Sn4ckHb-63" value="&amp;lt;&amp;lt;view&amp;gt;&amp;gt;&lt;div&gt;prefrences tab&lt;/div&gt;" style="text;html=1;align=center;verticalAlign=middle;whiteSpace=wrap;rounded=0;" parent="1" vertex="1">
          <mxGeometry x="171" y="820" width="150" height="30" as="geometry" />
        </mxCell>
        <mxCell id="OEzI5QVFCQrL6Sn4ckHb-64" value="" style="html=1;labelBackgroundColor=#ffffff;startArrow=none;startFill=0;startSize=6;endArrow=classic;endFill=1;endSize=6;jettySize=auto;orthogonalLoop=1;strokeWidth=1;dashed=1;fontSize=14;rounded=0;" parent="1" edge="1">
          <mxGeometry width="60" height="60" relative="1" as="geometry">
            <mxPoint x="240" y="910" as="sourcePoint" />
            <mxPoint x="80" y="910" as="targetPoint" />
          </mxGeometry>
        </mxCell>
        <mxCell id="OEzI5QVFCQrL6Sn4ckHb-65" value="(prefrences confirmation)" style="text;html=1;align=center;verticalAlign=middle;whiteSpace=wrap;rounded=0;" parent="1" vertex="1">
          <mxGeometry x="61" y="880" width="200" height="30" as="geometry" />
        </mxCell>
        <mxCell id="IobvFFUI6iJxAwQoR5Td-1" value="&amp;lt;&amp;lt;DataAccess&amp;gt;&amp;gt;&lt;div&gt;car_comp/airline/hotel&lt;/div&gt;" style="text;html=1;align=center;verticalAlign=middle;whiteSpace=wrap;rounded=0;" vertex="1" parent="1">
          <mxGeometry x="1350" y="850" width="60" height="30" as="geometry" />
        </mxCell>
        <mxCell id="IobvFFUI6iJxAwQoR5Td-2" value="" style="rounded=1;whiteSpace=wrap;html=1;direction=south;" vertex="1" parent="1">
          <mxGeometry x="1370" y="899.5" width="20" height="199" as="geometry" />
        </mxCell>
        <mxCell id="IobvFFUI6iJxAwQoR5Td-3" value="&amp;lt;&amp;lt;DataAccess&amp;gt;&amp;gt;&lt;div&gt;order&lt;/div&gt;" style="text;html=1;align=center;verticalAlign=middle;whiteSpace=wrap;rounded=0;" vertex="1" parent="1">
          <mxGeometry x="840" y="850" width="60" height="30" as="geometry" />
        </mxCell>
        <mxCell id="IobvFFUI6iJxAwQoR5Td-4" value="" style="rounded=1;whiteSpace=wrap;html=1;direction=south;" vertex="1" parent="1">
          <mxGeometry x="860" y="893.5" width="20" height="139" as="geometry" />
        </mxCell>
        <mxCell id="IobvFFUI6iJxAwQoR5Td-6" value="" style="rounded=1;whiteSpace=wrap;html=1;direction=south;" vertex="1" parent="1">
          <mxGeometry x="460" y="879.5" width="20" height="124" as="geometry" />
        </mxCell>
        <mxCell id="IobvFFUI6iJxAwQoR5Td-7" value="&amp;lt;&amp;lt;controller&amp;gt;&amp;gt;&lt;div&gt;selectprefrencestab&lt;/div&gt;" style="text;html=1;align=center;verticalAlign=middle;whiteSpace=wrap;rounded=0;" vertex="1" parent="1">
          <mxGeometry x="440" y="842" width="60" height="30" as="geometry" />
        </mxCell>
        <mxCell id="IobvFFUI6iJxAwQoR5Td-8" value="" style="rounded=1;whiteSpace=wrap;html=1;direction=south;" vertex="1" parent="1">
          <mxGeometry x="690" y="877" width="20" height="139" as="geometry" />
        </mxCell>
        <mxCell id="IobvFFUI6iJxAwQoR5Td-9" value="order" style="text;html=1;align=center;verticalAlign=middle;whiteSpace=wrap;rounded=0;" vertex="1" parent="1">
          <mxGeometry x="670" y="833.5" width="60" height="30" as="geometry" />
        </mxCell>
        <mxCell id="IobvFFUI6iJxAwQoR5Td-12" value="" style="endArrow=classic;html=1;rounded=0;exitX=0.5;exitY=0;exitDx=0;exitDy=0;entryX=0.442;entryY=0.793;entryDx=0;entryDy=0;entryPerimeter=0;" edge="1" parent="1">
          <mxGeometry width="50" height="50" relative="1" as="geometry">
            <mxPoint x="476" y="924.5" as="sourcePoint" />
            <mxPoint x="690" y="921.5" as="targetPoint" />
          </mxGeometry>
        </mxCell>
        <mxCell id="IobvFFUI6iJxAwQoR5Td-13" value="updatePrefOrd(custID,OrdID,type,Pref)" style="text;html=1;align=center;verticalAlign=middle;whiteSpace=wrap;rounded=0;" vertex="1" parent="1">
          <mxGeometry x="556" y="893.5" width="60" height="30" as="geometry" />
        </mxCell>
        <mxCell id="IobvFFUI6iJxAwQoR5Td-14" value="" style="endArrow=classic;html=1;rounded=0;exitX=0.25;exitY=0;exitDx=0;exitDy=0;entryX=0.14;entryY=1.05;entryDx=0;entryDy=0;entryPerimeter=0;" edge="1" parent="1" source="IobvFFUI6iJxAwQoR5Td-8" target="IobvFFUI6iJxAwQoR5Td-4">
          <mxGeometry width="50" height="50" relative="1" as="geometry">
            <mxPoint x="486" y="934.5" as="sourcePoint" />
            <mxPoint x="700" y="931.5" as="targetPoint" />
          </mxGeometry>
        </mxCell>
        <mxCell id="IobvFFUI6iJxAwQoR5Td-15" value="updatePrefOrd(custID,OrdID,type,Pref)" style="text;html=1;align=center;verticalAlign=middle;whiteSpace=wrap;rounded=0;" vertex="1" parent="1">
          <mxGeometry x="760" y="880" width="100" height="30" as="geometry" />
        </mxCell>
      </root>
    </mxGraphModel>
  </diagram>
</mxfile>
